<svg width="226" height="112" viewBox="0 0 226 112" fill="none" xmlns="http://www.w3.org/2000/svg">
<g filter="url(#filter0_d_11_71)">
<rect x="17" y="17" width="182" height="68" rx="5" fill="#E2E0FD"/>
<rect x="17.5" y="17.5" width="181" height="67" rx="4.5" stroke="#CBCBF3"/>
</g>
<path d="M61.5443 37.657C61.8924 37.657 62.1704 37.9517 62.4103 38.2039C62.6247 38.4294 62.8581 38.685 62.8581 38.9962V43.4124C62.8581 43.8687 62.482 44.2508 62.2643 44.6518C62.1917 44.7855 62.1505 44.9386 62.1505 45.1013C62.1505 45.2641 62.1917 45.4172 62.2643 45.5509C62.482 45.9519 62.8581 46.334 62.8581 46.7903V62.2592C62.8581 62.5434 62.6454 62.7784 62.4405 62.9752C62.2501 63.1581 62.0277 63.3412 61.7638 63.3412H59C58.4477 63.3412 58 62.8935 58 62.3412V38.657C58 38.1047 58.4477 37.657 59 37.657H61.5443Z" fill="url(#paint0_linear_11_71)"/>
<path d="M63.7475 62.9752C63.9378 63.1581 64.1602 63.3412 64.4241 63.3412H67.2319C67.7842 63.3412 68.2319 62.8935 68.2319 62.3412V49.455C68.2319 48.3065 68.493 47.4365 69.015 46.8448C69.1945 46.6294 69.4049 46.4511 69.6461 46.3097C69.8857 46.1693 70.0963 45.9755 70.2098 45.7221C70.4098 45.2759 70.636 44.8419 70.8886 44.42C71.2608 43.7981 71.6758 43.2174 72.1337 42.6777C72.6709 42.0446 72.3748 41.0411 71.5459 41.0881C70.1824 41.1653 68.8924 41.5895 67.7344 42.1859C66.2538 42.9485 64.9997 43.9878 64.1029 44.9236C64.0576 44.9709 64.0374 45.0358 64.0374 45.1013C64.0374 45.2641 63.9962 45.4172 63.9236 45.5509C63.7059 45.9519 63.3298 46.334 63.3298 46.7903V62.2592C63.3298 62.5434 63.5425 62.7784 63.7475 62.9752Z" fill="url(#paint1_linear_11_71)"/>
<path d="M63.5622 44.2821C63.7311 44.3789 63.9576 44.3956 64.0969 44.2595C64.9921 43.3851 66.1624 42.4649 67.5184 41.7665C69.2732 40.8627 71.3532 40.3241 73.5516 40.754C73.8558 40.8135 74.1729 40.7496 74.4246 40.5688C74.8869 40.2368 75.3761 39.9307 75.8922 39.6504C76.452 39.342 77.031 39.0736 77.6294 38.8453C78.2776 38.5979 78.3938 37.764 77.733 37.5526C76.8978 37.2741 75.8885 37.1349 74.7052 37.1349C72.0602 37.1349 70.0069 37.4308 68.2319 38.7532V38.657C68.2319 38.1047 67.7842 37.657 67.2319 37.657H64.6436C64.2955 37.657 64.0175 37.9517 63.7776 38.2039C63.5632 38.4294 63.3298 38.685 63.3298 38.9962V43.9383C63.3298 44.0851 63.4348 44.2092 63.5622 44.2821Z" fill="url(#paint2_linear_11_71)"/>
<path d="M83.5902 63.8287C81.218 63.8287 79.0732 63.2925 77.1559 62.2201C75.2712 61.1152 73.7601 59.6366 72.6227 57.7843C71.5178 55.8996 70.9654 53.8035 70.9654 51.4963C70.9654 49.1891 71.5178 47.1256 72.6227 45.3058C73.7276 43.4535 75.2387 41.9911 77.1559 40.9188C79.0732 39.8139 81.2017 39.2614 83.5415 39.2614C85.9462 39.2614 88.0909 39.8139 89.9757 40.9188C91.893 41.9911 93.4041 43.4535 94.509 45.3058C95.6138 47.1256 96.1663 49.1891 96.1663 51.4963C96.1663 53.8035 95.6138 55.8996 94.509 57.7843C93.4041 59.6366 91.893 61.1152 89.9757 62.2201C88.0909 63.2925 85.9624 63.8287 83.5902 63.8287ZM83.5415 57.8818C84.7438 57.8818 85.8 57.6219 86.7099 57.1019C87.6522 56.5495 88.3672 55.8021 88.8546 54.8597C89.3745 53.8848 89.6345 52.7799 89.6345 51.545C89.6345 50.3102 89.3745 49.2216 88.8546 48.2792C88.3347 47.3368 87.6197 46.6056 86.7099 46.0857C85.8 45.5332 84.7438 45.257 83.5415 45.257C82.3716 45.257 81.3317 45.5332 80.4218 46.0857C79.5119 46.6056 78.797 47.3368 78.2771 48.2792C77.7571 49.2216 77.4972 50.3102 77.4972 51.545C77.4972 52.7799 77.7571 53.8848 78.2771 54.8597C78.797 55.8021 79.5119 56.5495 80.4218 57.1019C81.3317 57.6219 82.3716 57.8818 83.5415 57.8818Z" fill="#010009"/>
<path d="M107.488 63.8287C105.408 63.8287 103.556 63.39 101.931 62.5126C100.339 61.6352 99.0879 60.4165 98.178 58.8567C97.2681 57.2969 96.8132 55.4934 96.8132 53.4461V41.7976C96.8132 40.6931 97.7086 39.7976 98.8132 39.7976H101.247C102.352 39.7976 103.247 40.6931 103.247 41.7976V53.2998C103.247 54.2747 103.41 55.1196 103.735 55.8346C104.06 56.517 104.547 57.0369 105.197 57.3944C105.847 57.7518 106.611 57.9306 107.488 57.9306C108.821 57.9306 109.86 57.5244 110.608 56.712C111.355 55.8996 111.729 54.7622 111.729 53.2998V41.7976C111.729 40.6931 112.624 39.7976 113.729 39.7976H116.115C117.219 39.7976 118.115 40.6931 118.115 41.7976V53.4461C118.115 55.5258 117.66 57.3456 116.75 58.9055C115.872 60.4653 114.621 61.6839 112.996 62.5613C111.404 63.4062 109.568 63.8287 107.488 63.8287Z" fill="#010009"/>
<path d="M120.798 63.3412C119.694 63.3412 118.798 62.4458 118.798 61.3412V32C118.798 30.8954 119.694 30 120.798 30H123.184C124.288 30 125.184 30.8954 125.184 32V61.3412C125.184 62.4458 124.288 63.3412 123.184 63.3412H120.798ZM121.987 45.284C120.894 45.2691 120.015 44.3781 120.015 43.2842V41.3644C120.015 40.2204 120.973 39.3095 122.115 39.3669L128.792 39.7022C129.857 39.7557 130.692 40.6341 130.692 41.6997V43.3757C130.692 44.4909 129.78 45.3908 128.665 45.3755L121.987 45.284Z" fill="#010009"/>
<path d="M133.453 63.3412C132.348 63.3412 131.453 62.4458 131.453 61.3412V32C131.453 30.8954 132.348 30 133.453 30L135.838 30C136.943 30 137.838 30.8954 137.838 32V61.3412C137.838 62.4458 136.943 63.3412 135.838 63.3412H133.453Z" fill="#010009"/>
<path d="M144.62 58.0281L140.48 50.9916C139.737 49.729 140.559 48.1225 142.017 47.986L144.523 47.7516C145.38 47.6714 146.193 48.1496 146.54 48.9386L148.357 53.0759C148.458 53.3051 148.429 53.5706 148.282 53.7729C147.8 54.4345 146.768 53.8792 147.054 53.1126L151.544 41.0976C151.836 40.3158 152.583 39.7976 153.417 39.7976H155.928C157.374 39.7976 158.342 41.2845 157.757 42.6068L148.52 63.4874L144.62 58.0281ZM140.612 73.1876C139.145 73.1876 138.177 71.6597 138.804 70.3329L144.62 58.0281L148.52 63.4874L144.757 71.9965C144.437 72.7206 143.72 73.1876 142.928 73.1876H140.612Z" fill="#010009"/>
<path d="M134.795 60.624C134.795 59.5194 135.691 58.624 136.795 58.624H139.085C140.19 58.624 141.085 59.5194 141.085 60.624V61.3412C141.085 62.4458 140.19 63.3412 139.085 63.3412H136.795C135.691 63.3412 134.795 62.4458 134.795 61.3412V60.624Z" fill="#010009"/>
<defs>
<filter id="filter0_d_11_71" x="0" y="0" width="226" height="112" filterUnits="userSpaceOnUse" color-interpolation-filters="sRGB">
<feFlood flood-opacity="0" result="BackgroundImageFix"/>
<feColorMatrix in="SourceAlpha" type="matrix" values="0 0 0 0 0 0 0 0 0 0 0 0 0 0 0 0 0 0 127 0" result="hardAlpha"/>
<feOffset dx="5" dy="5"/>
<feGaussianBlur stdDeviation="11"/>
<feComposite in2="hardAlpha" operator="out"/>
<feColorMatrix type="matrix" values="0 0 0 0 0 0 0 0 0 0 0 0 0 0 0 0 0 0 0.18 0"/>
<feBlend mode="normal" in2="BackgroundImageFix" result="effect1_dropShadow_11_71"/>
<feBlend mode="normal" in="SourceGraphic" in2="effect1_dropShadow_11_71" result="shape"/>
</filter>
<linearGradient id="paint0_linear_11_71" x1="77.4978" y1="35.6606" x2="59.8869" y2="60.5046" gradientUnits="userSpaceOnUse">
<stop offset="0.292418" stop-color="#A489F1"/>
<stop offset="1" stop-color="#3330D4"/>
</linearGradient>
<linearGradient id="paint1_linear_11_71" x1="77.4978" y1="35.6606" x2="59.8869" y2="60.5046" gradientUnits="userSpaceOnUse">
<stop offset="0.292418" stop-color="#A489F1"/>
<stop offset="1" stop-color="#3330D4"/>
</linearGradient>
<linearGradient id="paint2_linear_11_71" x1="77.4978" y1="35.6606" x2="59.8869" y2="60.5046" gradientUnits="userSpaceOnUse">
<stop offset="0.292418" stop-color="#A489F1"/>
<stop offset="1" stop-color="#3330D4"/>
</linearGradient>
</defs>
</svg>
