<svg width="101" height="44" viewBox="0 0 101 44" fill="none" xmlns="http://www.w3.org/2000/svg">
<path d="M3.54431 7.65696C3.89239 7.65696 4.17037 7.95173 4.41027 8.20393C4.62471 8.42937 4.85809 8.685 4.85809 8.99614V13.4124C4.85809 13.8687 4.48202 14.2508 4.26429 14.6518C4.19173 14.7854 4.15051 14.9386 4.15051 15.1013C4.15051 15.2641 4.19173 15.4172 4.26429 15.5509C4.48202 15.9519 4.85809 16.334 4.85809 16.7903V32.2592C4.85809 32.5433 4.64538 32.7784 4.44045 32.9752C4.2501 33.1581 4.02772 33.3412 3.76378 33.3412H1C0.447716 33.3412 0 32.8935 0 32.3412V8.65696C0 8.10467 0.447715 7.65696 1 7.65696H3.54431Z" fill="url(#paint0_linear_11_17)"/>
<path d="M5.74745 32.9752C5.9378 33.1581 6.16018 33.3412 6.42412 33.3412H9.23193C9.78422 33.3412 10.2319 32.8935 10.2319 32.3412V19.455C10.2319 18.3065 10.493 17.4365 11.015 16.8448C11.1945 16.6294 11.4049 16.451 11.6461 16.3097C11.8857 16.1693 12.0963 15.9755 12.2098 15.7221C12.4098 15.2759 12.636 14.8419 12.8886 14.42C13.2608 13.7981 13.6758 13.2173 14.1337 12.6777C14.6709 12.0446 14.3748 11.041 13.5459 11.088C12.1824 11.1653 10.8924 11.5894 9.73439 12.1859C8.25378 12.9484 6.99971 13.9878 6.10289 14.9236C6.05756 14.9709 6.03739 15.0358 6.03739 15.1013C6.03739 15.2641 5.99618 15.4172 5.92361 15.5509C5.70589 15.9519 5.32981 16.334 5.32981 16.7903V32.2592C5.32981 32.5433 5.54253 32.7784 5.74745 32.9752Z" fill="url(#paint1_linear_11_17)"/>
<path d="M5.56217 14.2821C5.73113 14.3789 5.95759 14.3956 6.09688 14.2595C6.99212 13.3851 8.16242 12.4649 9.5184 11.7665C11.2732 10.8627 13.3532 10.3241 15.5516 10.754C15.8558 10.8134 16.1729 10.7496 16.4246 10.5688C16.8869 10.2368 17.3761 9.93068 17.8922 9.65034C18.452 9.34195 19.031 9.07358 19.6294 8.84524C20.2776 8.59787 20.3938 7.76401 19.733 7.55255C18.8978 7.27413 17.8885 7.13492 16.7052 7.13492C14.0602 7.13492 12.0069 7.43074 10.2319 8.75323V8.65696C10.2319 8.10467 9.78422 7.65696 9.23193 7.65696H6.64359C6.29552 7.65696 6.01753 7.95173 5.77764 8.20393C5.5632 8.42937 5.32981 8.685 5.32981 8.99614V13.9383C5.32981 14.0851 5.43484 14.2092 5.56217 14.2821Z" fill="url(#paint2_linear_11_17)"/>
<path d="M25.5902 33.8287C23.218 33.8287 21.0732 33.2925 19.1559 32.2201C17.2712 31.1152 15.7601 29.6366 14.6227 27.7843C13.5178 25.8996 12.9654 23.8035 12.9654 21.4963C12.9654 19.1891 13.5178 17.1256 14.6227 15.3058C15.7276 13.4535 17.2387 11.9911 19.1559 10.9188C21.0732 9.81388 23.2017 9.26145 25.5415 9.26145C27.9462 9.26145 30.0909 9.81388 31.9757 10.9188C33.893 11.9911 35.4041 13.4535 36.509 15.3058C37.6138 17.1256 38.1663 19.1891 38.1663 21.4963C38.1663 23.8035 37.6138 25.8996 36.509 27.7843C35.4041 29.6366 33.893 31.1152 31.9757 32.2201C30.0909 33.2925 27.9624 33.8287 25.5902 33.8287ZM25.5415 27.8818C26.7438 27.8818 27.8 27.6219 28.7099 27.1019C29.6522 26.5495 30.3672 25.8021 30.8546 24.8597C31.3745 23.8848 31.6345 22.7799 31.6345 21.545C31.6345 20.3102 31.3745 19.2216 30.8546 18.2792C30.3347 17.3368 29.6197 16.6056 28.7099 16.0857C27.8 15.5332 26.7438 15.257 25.5415 15.257C24.3716 15.257 23.3317 15.5332 22.4218 16.0857C21.5119 16.6056 20.797 17.3368 20.2771 18.2792C19.7571 19.2216 19.4972 20.3102 19.4972 21.545C19.4972 22.7799 19.7571 23.8848 20.2771 24.8597C20.797 25.8021 21.5119 26.5495 22.4218 27.1019C23.3317 27.6219 24.3716 27.8818 25.5415 27.8818Z" fill="#010009"/>
<path d="M49.4882 33.8287C47.4085 33.8287 45.5562 33.39 43.9314 32.5126C42.339 31.6352 41.0879 30.4165 40.178 28.8567C39.2681 27.2969 38.8132 25.4934 38.8132 23.4461V11.7976C38.8132 10.6931 39.7086 9.79764 40.8132 9.79764H43.2474C44.352 9.79764 45.2475 10.6931 45.2475 11.7976V23.2998C45.2475 24.2747 45.4099 25.1196 45.7349 25.8346C46.0599 26.517 46.5473 27.0369 47.1972 27.3944C47.8472 27.7518 48.6108 27.9306 49.4882 27.9306C50.8206 27.9306 51.8604 27.5244 52.6079 26.712C53.3553 25.8996 53.729 24.7622 53.729 23.2998V11.7976C53.729 10.6931 54.6244 9.79764 55.729 9.79764H58.1145C59.2191 9.79764 60.1145 10.6931 60.1145 11.7976V23.4461C60.1145 25.5258 59.6596 27.3456 58.7497 28.9055C57.8723 30.4653 56.6212 31.6839 54.9963 32.5613C53.404 33.4062 51.568 33.8287 49.4882 33.8287Z" fill="#010009"/>
<path d="M62.7984 33.3412C61.6938 33.3412 60.7984 32.4458 60.7984 31.3412V2C60.7984 0.89543 61.6938 0 62.7984 0H65.1839C66.2885 0 67.1839 0.89543 67.1839 2V31.3412C67.1839 32.4458 66.2885 33.3412 65.1839 33.3412H62.7984ZM63.9875 15.284C62.8937 15.2691 62.0149 14.3781 62.0149 13.2842V11.3644C62.0149 10.2204 62.9727 9.30955 64.1152 9.36692L70.7924 9.70224C71.8566 9.75568 72.692 10.6341 72.692 11.6997V13.3757C72.692 14.4909 71.7798 15.3908 70.6646 15.3755L63.9875 15.284Z" fill="#010009"/>
<path d="M75.4528 33.3412C74.3482 33.3412 73.4528 32.4458 73.4528 31.3412V2C73.4528 0.89543 74.3482 3.15421e-07 75.4528 7.04513e-07L77.8383 1.54483e-06C78.9429 1.93392e-06 79.8383 0.895432 79.8383 2V31.3412C79.8383 32.4458 78.9429 33.3412 77.8383 33.3412H75.4528Z" fill="#010009"/>
<path d="M86.6204 28.0281L82.4798 20.9916C81.7369 19.729 82.5587 18.1225 84.0173 17.986L86.5225 17.7516C87.3805 17.6714 88.1934 18.1496 88.54 18.9386L90.3573 23.0759C90.458 23.3051 90.4293 23.5706 90.2819 23.7729C89.8001 24.4345 88.7679 23.8792 89.0543 23.1126L93.5438 11.0976C93.8359 10.3158 94.5827 9.79764 95.4173 9.79764H97.9283C99.3741 9.79764 100.342 11.2845 99.7573 12.6068L90.5199 33.4874L86.6204 28.0281ZM82.6124 43.1876C81.1449 43.1876 80.1771 41.6597 80.8043 40.3329L86.6204 28.0281L90.5199 33.4874L86.7572 41.9965C86.437 42.7206 85.7198 43.1876 84.928 43.1876H82.6124Z" fill="#010009"/>
<path d="M76.7955 30.624C76.7955 29.5194 77.6909 28.624 78.7955 28.624H81.0851C82.1896 28.624 83.0851 29.5194 83.0851 30.624V31.3412C83.0851 32.4458 82.1896 33.3412 81.0851 33.3412H78.7955C77.6909 33.3412 76.7955 32.4458 76.7955 31.3412V30.624Z" fill="#010009"/>
<defs>
<linearGradient id="paint0_linear_11_17" x1="19.4978" y1="5.66064" x2="1.88688" y2="30.5046" gradientUnits="userSpaceOnUse">
<stop offset="0.292418" stop-color="#A489F1"/>
<stop offset="1" stop-color="#3330D4"/>
</linearGradient>
<linearGradient id="paint1_linear_11_17" x1="19.4978" y1="5.66064" x2="1.88688" y2="30.5046" gradientUnits="userSpaceOnUse">
<stop offset="0.292418" stop-color="#A489F1"/>
<stop offset="1" stop-color="#3330D4"/>
</linearGradient>
<linearGradient id="paint2_linear_11_17" x1="19.4978" y1="5.66064" x2="1.88688" y2="30.5046" gradientUnits="userSpaceOnUse">
<stop offset="0.292418" stop-color="#A489F1"/>
<stop offset="1" stop-color="#3330D4"/>
</linearGradient>
</defs>
</svg>
